<svg width="24" height="25" viewBox="0 0 24 25" fill="none" xmlns="http://www.w3.org/2000/svg">
<path fill-rule="evenodd" clip-rule="evenodd" d="M16 1.5C16.5523 1.5 17 1.94772 17 2.5V3.50163C17.4755 3.50489 17.891 3.51472 18.2518 3.54419C18.8139 3.59012 19.3306 3.68868 19.816 3.93597C20.5686 4.31947 21.1805 4.93139 21.564 5.68404C21.8113 6.16937 21.9099 6.68608 21.9558 7.24817C22 7.78936 22 8.45372 22 9.25868V17.7413C22 18.5463 22 19.2106 21.9558 19.7518C21.9099 20.3139 21.8113 20.8306 21.564 21.316C21.1805 22.0686 20.5686 22.6805 19.816 23.064C19.3306 23.3113 18.8139 23.4099 18.2518 23.4558C17.7106 23.5 17.0463 23.5 16.2413 23.5H7.75868C6.95372 23.5 6.28937 23.5 5.74818 23.4558C5.18608 23.4099 4.66937 23.3113 4.18404 23.064C3.43139 22.6805 2.81947 22.0686 2.43598 21.316C2.18868 20.8306 2.09012 20.3139 2.04419 19.7518C1.99998 19.2106 1.99999 18.5463 2 17.7413V9.2587C1.99999 8.45374 1.99998 7.78937 2.04419 7.24817C2.09012 6.68608 2.18868 6.16937 2.43598 5.68404C2.81947 4.93139 3.43139 4.31947 4.18404 3.93597C4.66937 3.68868 5.18608 3.59012 5.74818 3.54419C6.10898 3.51472 6.52454 3.50489 7 3.50163V2.5C7 1.94772 7.44772 1.5 8 1.5C8.55229 1.5 9 1.94772 9 2.5V3.5H15V2.5C15 1.94772 15.4477 1.5 16 1.5ZM7 5.50176V6.5C7 7.05228 7.44772 7.5 8 7.5C8.55229 7.5 9 7.05228 9 6.5V5.5H15V6.5C15 7.05228 15.4477 7.5 16 7.5C16.5523 7.5 17 7.05228 17 6.5V5.50176C17.4455 5.50489 17.7954 5.51357 18.089 5.53755C18.5274 5.57337 18.7516 5.6383 18.908 5.71799C19.2843 5.90973 19.5903 6.2157 19.782 6.59202C19.8617 6.74842 19.9266 6.97262 19.9624 7.41104C19.9992 7.86113 20 8.44342 20 9.3V9.5H4V9.3C4 8.44342 4.00078 7.86113 4.03755 7.41104C4.07337 6.97262 4.1383 6.74842 4.21799 6.59202C4.40973 6.2157 4.7157 5.90973 5.09202 5.71799C5.24842 5.6383 5.47262 5.57337 5.91104 5.53755C6.20463 5.51357 6.55447 5.50489 7 5.50176Z" fill="#045D5E"/>
</svg>
