<svg width="48" height="48" viewBox="0 0 48 48" fill="none" xmlns="http://www.w3.org/2000/svg">
<rect width="48" height="48" rx="24" fill="#FFF1E6"/>
<path d="M24 37.3333L21.3334 29.3333H10.6667L13.3334 37.3333H24ZM24 37.3333H29.3334" stroke="#FC7300" stroke-width="2" stroke-linecap="round" stroke-linejoin="round"/>
<path d="M24 25.3333V24.6666C24 22.1525 24 20.8953 23.2189 20.1143C22.4378 19.3333 21.1808 19.3333 18.6666 19.3333C16.1525 19.3333 14.8954 19.3333 14.1144 20.1143C13.3333 20.8953 13.3333 22.1525 13.3333 24.6666V25.3333" stroke="#FC7300" stroke-width="2" stroke-linecap="round" stroke-linejoin="round"/>
<path d="M33.3333 25.3334C33.3333 26.8062 32.1395 28.0001 30.6667 28.0001C29.1939 28.0001 28 26.8062 28 25.3334C28 23.8606 29.1939 22.6667 30.6667 22.6667C32.1395 22.6667 33.3333 23.8606 33.3333 25.3334Z" stroke="#FC7300" stroke-width="2"/>
<path d="M21.3333 13.3334C21.3333 14.8062 20.1394 16.0001 18.6667 16.0001C17.1939 16.0001 16 14.8062 16 13.3334C16 11.8607 17.1939 10.6667 18.6667 10.6667C20.1394 10.6667 21.3333 11.8607 21.3333 13.3334Z" stroke="#FC7300" stroke-width="2"/>
<path d="M26.6667 31.3333H34.6667C36.1395 31.3333 37.3334 32.5271 37.3334 33.9999V34.6666C37.3334 36.1394 36.1395 37.3333 34.6667 37.3333H33.3334" stroke="#FC7300" stroke-width="2" stroke-linecap="round"/>
</svg>
