<svg width="48" height="48" viewBox="0 0 48 48" fill="none" xmlns="http://www.w3.org/2000/svg">
<rect width="48" height="48" rx="24" fill="white"/>
<path d="M24 37.3334C16.6362 37.3334 10.6667 31.3638 10.6667 24.0001C10.6667 20.2767 12.1929 16.9098 14.6538 14.4908M24 37.3334C22.716 36.3819 22.921 35.2741 23.5651 34.1663C24.5555 32.4633 24.5555 32.4633 24.5555 30.1926C24.5555 27.9219 25.9048 26.8573 30.6667 27.8095C32.8063 28.2375 34.3655 25.2813 37.1431 26.2574M24 37.3334C30.5944 37.3334 36.0707 32.5462 37.1431 26.2574M14.6538 14.4908C15.7862 14.6103 16.4202 15.2169 17.4733 16.3296C19.4726 18.4421 21.4718 18.6184 22.8047 17.9142C24.8039 16.858 23.1239 15.1471 25.4703 14.2174C26.9088 13.6474 27.183 12.1547 26.5022 10.9011M14.6538 14.4908C17.06 12.1257 20.3596 10.6667 24 10.6667C24.8552 10.6667 25.6916 10.7473 26.5022 10.9011M37.1431 26.2574C37.2682 25.5237 37.3334 24.7695 37.3334 24.0001C37.3334 17.4915 32.6699 12.0721 26.5022 10.9011" stroke="#FC7300" stroke-width="2.5" stroke-linejoin="round"/>
</svg>
