<svg width="48" height="48" viewBox="0 0 48 48" fill="none" xmlns="http://www.w3.org/2000/svg">
<rect width="48" height="48" rx="24" fill="#FFF1E6"/>
<path d="M35.3333 22V34C35.3333 34.6212 35.3333 34.9319 35.2318 35.1769C35.0965 35.5036 34.8369 35.7632 34.5102 35.8985C34.2652 36 33.9545 36 33.3333 36C32.7121 36 32.4014 36 32.1564 35.8985C31.8297 35.7632 31.5701 35.5036 31.4348 35.1769C31.3333 34.9319 31.3333 34.6212 31.3333 34V22C31.3333 21.3788 31.3333 21.0681 31.4348 20.8231C31.5701 20.4964 31.8297 20.2368 32.1564 20.1015C32.4014 20 32.7121 20 33.3333 20C33.9545 20 34.2652 20 34.5102 20.1015C34.8369 20.2368 35.0965 20.4964 35.2318 20.8231C35.3333 21.0681 35.3333 21.3788 35.3333 22Z" stroke="#FC7300" stroke-width="2" stroke-linejoin="round"/>
<path d="M30 12H34V16" stroke="#FC7300" stroke-width="2" stroke-linecap="round" stroke-linejoin="round"/>
<path d="M33.3333 12.6667C33.3333 12.6667 28 19.3334 14 24.0001" stroke="#FC7300" stroke-width="2" stroke-linecap="round" stroke-linejoin="round"/>
<path d="M26 26.6667V34.0001C26 34.6213 26 34.9319 25.8985 35.177C25.7632 35.5037 25.5036 35.7633 25.1769 35.8986C24.9319 36.0001 24.6212 36.0001 24 36.0001C23.3788 36.0001 23.0681 36.0001 22.8231 35.8986C22.4964 35.7633 22.2368 35.5037 22.1015 35.177C22 34.9319 22 34.6213 22 34.0001V26.6667C22 26.0455 22 25.7349 22.1015 25.4898C22.2368 25.1631 22.4964 24.9035 22.8231 24.7682C23.0681 24.6667 23.3788 24.6667 24 24.6667C24.6212 24.6667 24.9319 24.6667 25.1769 24.7682C25.5036 24.9035 25.7632 25.1631 25.8985 25.4898C26 25.7349 26 26.0455 26 26.6667Z" stroke="#FC7300" stroke-width="2" stroke-linejoin="round"/>
<path d="M16.6667 30V34C16.6667 34.6212 16.6667 34.9319 16.5652 35.1769C16.4299 35.5036 16.1703 35.7632 15.8436 35.8985C15.5986 36 15.2879 36 14.6667 36C14.0454 36 13.7348 36 13.4898 35.8985C13.1631 35.7632 12.9035 35.5036 12.7682 35.1769C12.6667 34.9319 12.6667 34.6212 12.6667 34V30C12.6667 29.3788 12.6667 29.0681 12.7682 28.8231C12.9035 28.4964 13.1631 28.2368 13.4898 28.1015C13.7348 28 14.0454 28 14.6667 28C15.2879 28 15.5986 28 15.8436 28.1015C16.1703 28.2368 16.4299 28.4964 16.5652 28.8231C16.6667 29.0681 16.6667 29.3788 16.6667 30Z" stroke="#FC7300" stroke-width="2" stroke-linejoin="round"/>
</svg>
