<svg width="32" height="32" viewBox="0 0 32 32" fill="none" xmlns="http://www.w3.org/2000/svg">
<rect x="0.5" y="0.5" width="31" height="31" rx="15.5" fill="#034A4B"/>
<rect x="0.5" y="0.5" width="31" height="31" rx="15.5" stroke="#89BAB7"/>
<path d="M12.6867 8.05595C11.8355 8.09611 11.2543 8.23195 10.7461 8.43163C10.2202 8.63659 9.77442 8.91163 9.3309 9.35675C8.88738 9.80188 8.61426 10.248 8.41073 10.7747C8.21377 11.284 8.08033 11.8657 8.04273 12.7174C8.00513 13.5691 7.99681 13.8429 8.00097 16.0153C8.00513 18.1878 8.01473 18.4601 8.05601 19.3136C8.09665 20.1646 8.23201 20.7458 8.43169 21.2541C8.63698 21.78 8.9117 22.2256 9.35698 22.6693C9.80226 23.113 10.248 23.3854 10.776 23.5893C11.2848 23.7859 11.8667 23.92 12.7183 23.9573C13.5698 23.9946 13.8439 24.0032 16.0157 23.999C18.1876 23.9949 18.461 23.9853 19.3143 23.9448C20.1676 23.9043 20.7457 23.768 21.2541 23.5693C21.7801 23.3635 22.226 23.0893 22.6693 22.6438C23.1127 22.1984 23.3857 21.752 23.589 21.225C23.7861 20.7162 23.9201 20.1342 23.957 19.2833C23.9943 18.4294 24.0031 18.1568 23.9989 15.9846C23.9948 13.8125 23.985 13.5401 23.9445 12.687C23.9041 11.8339 23.7685 11.2545 23.569 10.7459C23.3634 10.22 23.089 9.77468 22.6439 9.33067C22.1988 8.88667 21.7521 8.61387 21.2252 8.41099C20.7161 8.21403 20.1345 8.07979 19.2829 8.04299C18.4314 8.00619 18.1573 7.99675 15.9847 8.00091C13.812 8.00507 13.54 8.01435 12.6867 8.05595ZM12.7802 22.5181C12.0002 22.4842 11.5767 22.3546 11.2944 22.2461C10.9207 22.1021 10.6544 21.928 10.3731 21.6494C10.0919 21.3709 9.91906 21.1037 9.77314 20.7307C9.66354 20.4485 9.53154 20.0254 9.49506 19.2454C9.45538 18.4024 9.44706 18.1493 9.44242 16.0134C9.43778 13.8776 9.44594 13.6248 9.4829 12.7814C9.51618 12.002 9.64658 11.578 9.7549 11.296C9.8989 10.9217 10.0723 10.656 10.3515 10.3748C10.6307 10.0937 10.8971 9.9206 11.2704 9.77468C11.5523 9.6646 11.9754 9.53372 12.7551 9.4966C13.5988 9.4566 13.8516 9.4486 15.9871 9.44396C18.1226 9.43931 18.376 9.44731 19.2201 9.48444C19.9994 9.51836 20.4236 9.64748 20.7053 9.75644C21.0793 9.90044 21.3453 10.0734 21.6265 10.3531C21.9076 10.6328 22.0809 10.8982 22.2268 11.2723C22.337 11.5534 22.4679 11.9763 22.5047 12.7564C22.5449 13.6001 22.554 13.8531 22.5578 15.9885C22.5617 18.1238 22.5541 18.3774 22.5172 19.2205C22.4831 20.0005 22.3538 20.4242 22.2452 20.7067C22.1012 21.0803 21.9276 21.3467 21.6482 21.6277C21.3689 21.9086 21.1028 22.0818 20.7293 22.2277C20.4477 22.3376 20.0242 22.4688 19.2452 22.5059C18.4015 22.5456 18.1487 22.5539 16.0124 22.5586C13.876 22.5632 13.624 22.5546 12.7803 22.5181M19.302 11.7243C19.3023 11.9142 19.3589 12.0997 19.4647 12.2574C19.5704 12.4151 19.7206 12.5379 19.8961 12.6102C20.0717 12.6826 20.2648 12.7013 20.4509 12.6639C20.6371 12.6265 20.808 12.5348 20.942 12.4003C21.0761 12.2657 21.1672 12.0945 21.2039 11.9082C21.2406 11.7219 21.2212 11.5289 21.1482 11.3536C21.0752 11.1783 20.9518 11.0286 20.7938 10.9234C20.6357 10.8182 20.4499 10.7623 20.2601 10.7627C20.0055 10.7632 19.7616 10.8648 19.5819 11.0451C19.4022 11.2254 19.3015 11.4697 19.302 11.7243ZM11.8923 16.008C11.8968 18.2768 13.7394 20.1118 16.0077 20.1075C18.276 20.1032 20.1124 18.2608 20.1081 15.992C20.1037 13.7232 18.2607 11.8876 15.992 11.8921C13.7234 11.8966 11.888 13.7395 11.8923 16.008ZM13.3333 16.0051C13.3323 15.4777 13.4876 14.9618 13.7798 14.5227C14.072 14.0835 14.4878 13.7409 14.9746 13.5381C15.4615 13.3353 15.9976 13.2814 16.5151 13.3833C17.0326 13.4852 17.5083 13.7382 17.882 14.1104C18.2556 14.4826 18.5106 14.9573 18.6145 15.4744C18.7184 15.9915 18.6667 16.5278 18.4658 17.0155C18.2649 17.5031 17.9239 17.9203 17.486 18.2142C17.048 18.5081 16.5327 18.6655 16.0053 18.6665C15.6551 18.6673 15.3082 18.599 14.9844 18.4657C14.6605 18.3323 14.3661 18.1365 14.118 17.8893C13.8699 17.6422 13.6729 17.3486 13.5382 17.0253C13.4036 16.702 13.334 16.3553 13.3333 16.0051Z" fill="white"/>
</svg>
