<svg width="32" height="32" viewBox="0 0 32 32" fill="none" xmlns="http://www.w3.org/2000/svg">
<rect x="0.5" y="0.5" width="31" height="31" rx="15.5" fill="#034A4B"/>
<rect x="0.5" y="0.5" width="31" height="31" rx="15.5" stroke="#89BAB7"/>
<path d="M24.0923 24H20.7407V18.803C20.7407 17.5637 20.7184 15.9684 18.9975 15.9684C17.2519 15.9684 16.9848 17.3186 16.9848 18.7128V23.9997H13.6332V13.3125H16.8508V14.773H16.8958C17.2178 14.2279 17.6831 13.7794 18.2421 13.4754C18.8012 13.1714 19.433 13.0232 20.0704 13.0466C23.4674 13.0466 24.0937 15.259 24.0937 18.1372L24.0923 24ZM9.85156 11.8516C9.46688 11.8517 9.09082 11.7388 8.77093 11.5273C8.45104 11.3157 8.20172 11.015 8.05444 10.6631C7.90717 10.3112 7.86857 9.92402 7.94355 9.55044C8.01853 9.17686 8.20372 8.83368 8.47567 8.5643C8.74763 8.29492 9.09416 8.11145 9.47143 8.03707C9.84871 7.9627 10.2398 8.00077 10.5952 8.14646C10.9506 8.29216 11.2544 8.53894 11.4682 8.8556C11.682 9.17226 11.7961 9.54457 11.7962 9.92546C11.7962 10.1784 11.746 10.4288 11.6483 10.6625C11.5506 10.8961 11.4073 11.1085 11.2268 11.2873C11.0462 11.4662 10.8318 11.6081 10.5958 11.7049C10.3599 11.8017 10.107 11.8516 9.85156 11.8516ZM11.5273 24H8.17228V13.3125H11.5273V24Z" fill="white"/>
</svg>
