<svg width="32" height="32" viewBox="0 0 32 32" fill="none" xmlns="http://www.w3.org/2000/svg">
<rect x="0.5" y="0.5" width="31" height="31" rx="15.5" fill="#034A4B"/>
<rect x="0.5" y="0.5" width="31" height="31" rx="15.5" stroke="#89BAB7"/>
<g clip-path="url(#clip0_1_525)">
<path fill-rule="evenodd" clip-rule="evenodd" d="M23.1908 9.37731C21.4459 7.63025 19.1253 6.66763 16.6528 6.66675C11.5579 6.66675 7.41136 10.8128 7.40959 15.9091C7.4087 17.5382 7.83461 19.1284 8.64344 20.5298L7.33203 25.3198L12.232 24.0345C13.5819 24.7711 15.1021 25.1589 16.6488 25.1594H16.6528C21.7468 25.1594 25.8938 21.0129 25.8956 15.9166C25.8964 13.4467 24.936 11.1248 23.1908 9.37775V9.37731ZM16.6528 23.5984H16.6497C15.2713 23.598 13.9192 23.2275 12.7394 22.5277L12.4589 22.3611L9.5511 23.1238L10.3271 20.2887L10.1445 19.9979C9.37559 18.7748 8.96918 17.3609 8.97007 15.9095C8.97184 11.6739 12.4181 8.22767 16.6559 8.22767C18.7079 8.22856 20.6367 9.02852 22.0872 10.4809C23.5378 11.9328 24.336 13.8633 24.3351 15.9157C24.3333 20.1518 20.8871 23.598 16.6528 23.598V23.5984ZM20.8667 17.8449C20.6357 17.7293 19.5003 17.1708 19.2884 17.0937C19.0766 17.0166 18.9228 16.9781 18.769 17.2094C18.6153 17.4408 18.1725 17.9611 18.0378 18.1148C17.903 18.2691 17.7683 18.2881 17.5374 18.1724C17.3065 18.0568 16.5624 17.813 15.68 17.0263C14.9935 16.4138 14.5299 15.6578 14.3952 15.4264C14.2605 15.1951 14.381 15.0701 14.4962 14.9553C14.5999 14.8516 14.7271 14.6854 14.8428 14.5507C14.9585 14.4159 14.9966 14.3194 15.0737 14.1655C15.1508 14.0113 15.1123 13.8766 15.0547 13.7609C14.997 13.6452 14.5352 12.5084 14.3424 12.0462C14.155 11.5959 13.9644 11.6571 13.823 11.6496C13.6883 11.6429 13.5345 11.6416 13.3803 11.6416C13.2261 11.6416 12.9761 11.6992 12.7642 11.9305C12.5524 12.1619 11.9559 12.7207 11.9559 13.8571C11.9559 14.9934 12.7833 16.0921 12.899 16.2464C13.0146 16.4006 14.5277 18.7331 16.8442 19.7338C17.3952 19.9718 17.8255 20.1141 18.161 20.2205C18.7141 20.3964 19.2175 20.3716 19.6155 20.3122C20.0592 20.2457 20.9819 19.7533 21.1742 19.2139C21.3666 18.6746 21.3666 18.2119 21.309 18.1157C21.2514 18.0195 21.0972 17.9615 20.8662 17.8458L20.8667 17.8449Z" fill="white"/>
</g>
<defs>
<clipPath id="clip0_1_525">
<rect width="18.5635" height="18.6667" fill="white" transform="translate(7.33203 6.66675)"/>
</clipPath>
</defs>
</svg>
