<svg width="144" height="40" viewBox="0 0 144 40" fill="none" xmlns="http://www.w3.org/2000/svg">
<path d="M13.5733 12.5469L4.36035 9.39965V26.8659C4.36035 34.0677 10.4804 39.9067 18.029 39.9067C25.5775 39.9067 31.6976 34.0677 31.6976 26.8659V9.39965L22.6177 12.5469L22.5503 16.4677H24.3105V26.8676C24.3105 30.179 21.498 32.8623 18.0272 32.8623C14.5563 32.8623 11.7438 30.179 11.7438 26.8676V16.4677H13.5041L13.5715 12.5469H13.5733Z" fill="white"/>
<path d="M18.0284 0L0 5.88979L18.0284 11.7813L36.0569 5.88979L18.0284 0Z" fill="#FC7300"/>
<path d="M36.2199 11.2627C36.2199 11.046 36.0921 10.8598 35.9058 10.765L35.7354 5.88252H35.5509L35.3806 10.7531C35.18 10.8429 35.0399 11.0376 35.0399 11.2627C35.0399 11.4743 35.1623 11.6606 35.3451 11.7554L35.2972 13.1148C35.2812 13.577 35.4373 13.7734 35.6432 13.7734C35.849 13.7734 36.0052 13.5753 35.9892 13.1148L35.9413 11.7418C36.1099 11.6419 36.2216 11.4659 36.2216 11.2627H36.2199Z" fill="#FC7300"/>
<path d="M106.283 8.0083H121.547C125.525 8.0083 128.682 8.91741 131.019 10.7356C133.356 12.5539 134.524 15.266 134.524 18.872C134.524 22.478 133.363 25.0936 131.044 26.9118C128.723 28.7301 125.69 29.6392 121.945 29.6392H113.99V39.9357H106.283V8.0083ZM113.99 14.0809V23.8053H120.901C124.945 23.8053 126.966 22.1919 126.966 18.9668C126.966 15.7417 124.961 14.0809 120.951 14.0809H113.99Z" fill="white"/>
<path d="M73.4121 8.07031H88.6759C92.6542 8.07031 95.811 8.97943 98.1479 10.7977C100.485 12.6159 101.652 15.328 101.652 18.934C101.652 22.54 100.492 25.1556 98.1728 26.9738C95.8518 28.7921 92.8193 29.7012 89.0734 29.7012H81.1185V39.9977H73.4121V8.07031ZM81.1185 14.1429V23.8673H88.03C92.074 23.8673 94.0951 22.2539 94.0951 19.0288C94.0951 15.8037 92.09 14.1429 88.0797 14.1429H81.1185Z" fill="white"/>
<path d="M56.5628 8.0269H48.9948L36.2578 40H43.7779L46.5052 32.8693H58.9601L61.5916 40H69.2999L56.5628 8.0269ZM52.7549 15.8737L56.8095 26.7781H48.6577L52.7549 15.8737Z" fill="white"/>
<path d="M137.606 10.6629V7.16856H139.334C139.53 7.16856 139.716 7.21275 139.893 7.30114C140.073 7.38636 140.218 7.5142 140.329 7.68466C140.442 7.85511 140.499 8.06503 140.499 8.31439C140.499 8.56376 140.441 8.77683 140.324 8.9536C140.207 9.12721 140.056 9.25978 139.87 9.35133C139.686 9.44287 139.494 9.48864 139.292 9.48864H138.084V8.8589H139.084C139.207 8.8589 139.32 8.81313 139.424 8.72159C139.529 8.63005 139.581 8.49432 139.581 8.31439C139.581 8.125 139.529 7.99242 139.424 7.91667C139.32 7.84091 139.211 7.80303 139.098 7.80303H138.468V10.6629H137.606ZM139.798 9.03883L140.622 10.6629H139.675L138.894 9.03883H139.798ZM138.965 12.7462C138.441 12.7462 137.95 12.6484 137.493 12.4527C137.035 12.2569 136.632 11.9855 136.285 11.6383C135.938 11.291 135.667 10.8886 135.471 10.4309C135.275 9.97317 135.177 9.48232 135.177 8.95833C135.177 8.43434 135.275 7.9435 135.471 7.4858C135.667 7.02809 135.938 6.62563 136.285 6.27841C136.632 5.93119 137.035 5.65972 137.493 5.46401C137.95 5.26831 138.441 5.17045 138.965 5.17045C139.489 5.17045 139.98 5.26831 140.438 5.46401C140.895 5.65972 141.298 5.93119 141.645 6.27841C141.992 6.62563 142.264 7.02809 142.459 7.4858C142.655 7.9435 142.753 8.43434 142.753 8.95833C142.753 9.48232 142.655 9.97317 142.459 10.4309C142.264 10.8886 141.992 11.291 141.645 11.6383C141.298 11.9855 140.895 12.2569 140.438 12.4527C139.98 12.6484 139.489 12.7462 138.965 12.7462ZM138.965 11.7756C139.483 11.7756 139.955 11.6493 140.381 11.3968C140.807 11.1443 141.146 10.8049 141.399 10.3788C141.655 9.9495 141.782 9.47601 141.782 8.95833C141.782 8.44066 141.655 7.96875 141.399 7.54261C141.146 7.11332 140.807 6.77241 140.381 6.51989C139.955 6.26736 139.483 6.1411 138.965 6.1411C138.444 6.1411 137.971 6.26736 137.545 6.51989C137.119 6.77241 136.778 7.11332 136.522 7.54261C136.269 7.96875 136.143 8.44066 136.143 8.95833C136.143 9.47601 136.269 9.94792 136.522 10.3741C136.778 10.8002 137.119 11.1411 137.545 11.3968C137.971 11.6493 138.444 11.7756 138.965 11.7756Z" fill="white"/>
</svg>
